<?xml version="1.0" encoding="UTF-8" standalone="no"?>
<svg
   xmlns:dc="http://purl.org/dc/elements/1.1/"
   xmlns:cc="http://creativecommons.org/ns#"
   xmlns:rdf="http://www.w3.org/1999/02/22-rdf-syntax-ns#"
   xmlns:svg="http://www.w3.org/2000/svg"
   xmlns="http://www.w3.org/2000/svg"
   xmlns:sodipodi="http://sodipodi.sourceforge.net/DTD/sodipodi-0.dtd"
   xmlns:inkscape="http://www.inkscape.org/namespaces/inkscape"
   version="1.1"
   id="svg2"
   xml:space="preserve"
   width="1056"
   height="816"
   viewBox="0 0 1056 816"
   sodipodi:docname="Grocery Bag Template.ai"><metadata
     id="metadata8"><rdf:RDF><cc:Work
         rdf:about=""><dc:format>image/svg+xml</dc:format><dc:type
           rdf:resource="http://purl.org/dc/dcmitype/StillImage" /></cc:Work></rdf:RDF></metadata><defs
     id="defs6" /><sodipodi:namedview
     pagecolor="#ffffff"
     bordercolor="#666666"
     borderopacity="1"
     objecttolerance="10"
     gridtolerance="10"
     guidetolerance="10"
     inkscape:pageopacity="0"
     inkscape:pageshadow="2"
     inkscape:window-width="640"
     inkscape:window-height="480"
     id="namedview4" /><g
     id="g10"
     inkscape:groupmode="layer"
     inkscape:label="Grocery Bag Template"
     transform="matrix(1.3333333,0,0,-1.3333333,0,816)"><text
       transform="matrix(1,0,0,-1,20.4067,582.4531)"
       style="font-variant:normal;font-weight:900;font-stretch:normal;font-size:25px;font-family:'NeueHaasGroteskDisp Pro Blk';-inkscape-font-specification:NHaasGroteskDSPro-95Blk;writing-mode:lr-tb;fill:#000000;fill-opacity:1;fill-rule:nonzero;stroke:none"
       id="text14"><tspan
         x="0 14.575 24.799999 39.400002 53.375 67.75 78.472504 92.497498 96.222504 111.3475 125.3225 139.89751 143.6225 152.8725 167.2475 189.82249 204.94749 211.4975 225.3475 234.5975"
         y="0"
         sodipodi:role="line"
         id="tspan12">grocery bag template</tspan></text><text
       transform="matrix(1,0,0,-1,713.4567,18.2531)"
       style="font-variant:normal;font-weight:normal;font-stretch:normal;font-size:25px;font-family:Longhaul;-inkscape-font-specification:Longhaul;writing-mode:lr-tb;fill:#231f56;fill-opacity:1;fill-rule:nonzero;stroke:none"
       id="text24"><tspan
         x="0"
         y="0"
         id="tspan16">x</tspan><tspan
         x="14.55"
         y="0"
         id="tspan18">y</tspan><tspan
         x="29.75"
         y="0"
         id="tspan20">l</tspan><tspan
         x="36.400002"
         y="0"
         id="tspan22">k</tspan></text><text
       transform="matrix(1,0,0,-1,666.5298,18.2637)"
       style="font-variant:normal;font-stretch:normal;font-size:13px;font-family:'NeueHaasGroteskDisp Pro';-inkscape-font-specification:NHaasGroteskDSPro-55Rg;writing-mode:lr-tb;fill:#231f20;fill-opacity:1;fill-rule:nonzero;stroke:none"
       id="text28"><tspan
         x="0 7.7336998 10.1387 17.366699 21.526699 23.5937 30.873699 32.940701 37.438702"
         y="0"
         sodipodi:role="line"
         id="tspan26">0.2” = 1”</tspan></text><path
       d="m 505.921,184.966 h -187.2 v 57.601 h 187.2 z"
       style="fill:#ffffff;fill-opacity:1;fill-rule:nonzero;stroke:#000000;stroke-width:1;stroke-linecap:butt;stroke-linejoin:miter;stroke-miterlimit:10;stroke-dasharray:none;stroke-opacity:1"
       id="path30" /><path
       d="m 318.836,242.566 h 7.2 v -57.601 h -7.2 z"
       style="fill:#ffffff;fill-opacity:1;fill-rule:nonzero;stroke:#000000;stroke-width:1;stroke-linecap:butt;stroke-linejoin:miter;stroke-miterlimit:10;stroke-dasharray:none;stroke-opacity:1"
       id="path32" /><path
       d="m 498.722,242.566 h 7.199 v -57.601 h -7.199 z"
       style="fill:#ffffff;fill-opacity:1;fill-rule:nonzero;stroke:#000000;stroke-width:1;stroke-linecap:butt;stroke-linejoin:miter;stroke-miterlimit:10;stroke-dasharray:none;stroke-opacity:1"
       id="path34" /><path
       d="m 654.269,276.881 h -57.6 v 129.6 h 57.6 z"
       style="fill:#ffffff;fill-opacity:1;fill-rule:nonzero;stroke:#000000;stroke-width:1;stroke-linecap:butt;stroke-linejoin:miter;stroke-miterlimit:10;stroke-dasharray:none;stroke-opacity:1"
       id="path36" /><g
       id="g38"
       transform="translate(596.6689,406.481)"><path
         d="M 0,0 H 6.943 V -122.587 H 50.348 V 0 H 57.6 V -129.6 H 0 Z"
         style="fill:#ffffff;fill-opacity:1;fill-rule:nonzero;stroke:none"
         id="path40" /></g><g
       id="g42"
       transform="translate(596.6689,406.481)"><path
         d="M 0,0 H 6.943 V -122.587 H 50.348 V 0 H 57.6 V -129.6 H 0 Z"
         style="fill:none;stroke:#000000;stroke-width:1;stroke-linecap:butt;stroke-linejoin:miter;stroke-miterlimit:10;stroke-dasharray:none;stroke-opacity:1"
         id="path44" /></g><path
       d="m 579.467,276.881 h -57.6 v 129.6 h 57.6 z"
       style="fill:#ffffff;fill-opacity:1;fill-rule:nonzero;stroke:#000000;stroke-width:1;stroke-linecap:butt;stroke-linejoin:miter;stroke-miterlimit:10;stroke-dasharray:none;stroke-opacity:1"
       id="path46" /><g
       id="g48"
       transform="translate(521.8672,406.481)"><path
         d="M 0,0 H 6.943 V -122.587 H 50.348 V 0 H 57.6 V -129.6 H 0 Z"
         style="fill:#ffffff;fill-opacity:1;fill-rule:nonzero;stroke:none"
         id="path50" /></g><g
       id="g52"
       transform="translate(521.8672,406.481)"><path
         d="M 0,0 H 6.943 V -122.587 H 50.348 V 0 H 57.6 V -129.6 H 0 Z"
         style="fill:none;stroke:#000000;stroke-width:1;stroke-linecap:butt;stroke-linejoin:miter;stroke-miterlimit:10;stroke-dasharray:none;stroke-opacity:1"
         id="path54" /></g><path
       d="m 505.921,276.881 h -187.2 v 129.6 h 187.2 z"
       style="fill:#ffffff;fill-opacity:1;fill-rule:nonzero;stroke:#000000;stroke-width:1;stroke-linecap:butt;stroke-linejoin:miter;stroke-miterlimit:10;stroke-dasharray:none;stroke-opacity:1"
       id="path56" /><g
       id="g58"
       transform="translate(453.0439,406.481)"><path
         d="M 0,0 H -9.188 V 39.777 H -72.435 V 48.964 0 h -9.01 v 39.954 l 9.01,9.01 H -9.188 L 0,39.777 V 0 h -9.188 v 48.964"
         style="fill:#ffffff;fill-opacity:1;fill-rule:nonzero;stroke:#000000;stroke-width:1;stroke-linecap:butt;stroke-linejoin:miter;stroke-miterlimit:10;stroke-dasharray:none;stroke-opacity:1"
         id="path60" /></g><path
       d="m 505.831,406.481 h -7.199 v -129.6 h 7.199 z"
       style="fill:#ffffff;fill-opacity:1;fill-rule:nonzero;stroke:#000000;stroke-width:1;stroke-linecap:butt;stroke-linejoin:miter;stroke-miterlimit:10;stroke-dasharray:none;stroke-opacity:1"
       id="path62" /><path
       d="m 326.402,406.481 h -7.2 v -129.6 h 7.2 z"
       style="fill:#ffffff;fill-opacity:1;fill-rule:nonzero;stroke:#000000;stroke-width:1;stroke-linecap:butt;stroke-linejoin:miter;stroke-miterlimit:10;stroke-dasharray:none;stroke-opacity:1"
       id="path64" /><path
       d="m 300.113,276.881 h -187.2 v 129.6 h 187.2 z"
       style="fill:#ffffff;fill-opacity:1;fill-rule:nonzero;stroke:#000000;stroke-width:1;stroke-linecap:butt;stroke-linejoin:miter;stroke-miterlimit:10;stroke-dasharray:none;stroke-opacity:1"
       id="path66" /><g
       id="g68"
       transform="translate(247.2354,406.481)"><path
         d="M 0,0 H -9.187 V 39.777 H -72.435 V 48.964 0 h -9.01 v 39.954 l 9.01,9.01 H -9.187 L 0,39.777 V 0 h -9.187 v 48.964"
         style="fill:#ffffff;fill-opacity:1;fill-rule:nonzero;stroke:#000000;stroke-width:1;stroke-linecap:butt;stroke-linejoin:miter;stroke-miterlimit:10;stroke-dasharray:none;stroke-opacity:1"
         id="path70" /></g><path
       d="m 300.023,406.481 h -7.2 v -129.6 h 7.2 z"
       style="fill:#ffffff;fill-opacity:1;fill-rule:nonzero;stroke:#000000;stroke-width:1;stroke-linecap:butt;stroke-linejoin:miter;stroke-miterlimit:10;stroke-dasharray:none;stroke-opacity:1"
       id="path72" /><path
       d="m 120.594,406.481 h -7.2 v -129.6 h 7.2 z"
       style="fill:#ffffff;fill-opacity:1;fill-rule:nonzero;stroke:#000000;stroke-width:1;stroke-linecap:butt;stroke-linejoin:miter;stroke-miterlimit:10;stroke-dasharray:none;stroke-opacity:1"
       id="path74" /><text
       transform="matrix(1,0,0,-1,20.731,557.1489)"
       style="font-variant:normal;font-weight:500;font-stretch:normal;font-size:21px;font-family:'NeueHaasGroteskDisp Pro Md';-inkscape-font-specification:NHaasGroteskDSPro-65Md;writing-mode:lr-tb;fill:#000000;fill-opacity:1;fill-rule:nonzero;stroke:none"
       id="text78"><tspan
         x="0 17.514 22.218 33.747002 38.451 41.979 48.720001 56.952 68.859001 77.237999 80.765999 92.000999 95.528999 107.961 116.34 119.868 131.103 134.631 146.70599 155.08501"
         y="0"
         sodipodi:role="line"
         id="tspan76">mini (13” x 9” x 4”)</tspan></text><text
       transform="matrix(1,0,0,-1,112.9131,416.4585)"
       style="font-variant:normal;font-stretch:normal;font-size:12px;font-family:'NeueHaasGroteskDisp Pro';-inkscape-font-specification:NHaasGroteskDSPro-55Rg;writing-mode:lr-tb;fill:#231f20;fill-opacity:1;fill-rule:nonzero;stroke:none"
       id="text86"><tspan
         x="0 3.5280001 7.4039998 14.016 20.232"
         y="0"
         sodipodi:role="line"
         id="tspan80">front</tspan><tspan
         x="408.14401 410.508 416.784 420.19199 483.09601 487.21201 489.504 496.01999 502.23599 206.472 213.07201 219.192 225.42"
         y="0.168"
         sodipodi:role="line"
         id="tspan82">leftrightback</tspan><tspan
         x="205.812 212.412 218.9028 222.408 226.032 232.644"
         y="164.26801"
         sodipodi:role="line"
         id="tspan84">bottom</tspan></text><path
       d="m 559.067,90.888 h -259.2 v 79.199 h 259.2 z"
       style="fill:#ffffff;fill-opacity:1;fill-rule:nonzero;stroke:#000000;stroke-width:1;stroke-linecap:butt;stroke-linejoin:miter;stroke-miterlimit:10;stroke-dasharray:none;stroke-opacity:1"
       id="path88" /><path
       d="m 299.868,170.087 h 7.2 V 90.888 h -7.2 z"
       style="fill:#ffffff;fill-opacity:1;fill-rule:nonzero;stroke:#000000;stroke-width:1;stroke-linecap:butt;stroke-linejoin:miter;stroke-miterlimit:10;stroke-dasharray:none;stroke-opacity:1"
       id="path90" /><path
       d="m 551.867,170.087 h 7.2 V 90.888 h -7.2 z"
       style="fill:#ffffff;fill-opacity:1;fill-rule:nonzero;stroke:#000000;stroke-width:1;stroke-linecap:butt;stroke-linejoin:miter;stroke-miterlimit:10;stroke-dasharray:none;stroke-opacity:1"
       id="path92" /><path
       d="m 758.152,217.781 h -79.2 v 187.2 h 79.2 z"
       style="fill:#ffffff;fill-opacity:1;fill-rule:nonzero;stroke:#000000;stroke-width:1;stroke-linecap:butt;stroke-linejoin:miter;stroke-miterlimit:10;stroke-dasharray:none;stroke-opacity:1"
       id="path94" /><g
       id="g96"
       transform="translate(678.9521,404.981)"><path
         d="M 0,0 H 7.008 V -180.324 H 71.944 V 0 H 79.2 V -187.2 H 0 Z"
         style="fill:#ffffff;fill-opacity:1;fill-rule:nonzero;stroke:none"
         id="path98" /></g><g
       id="g100"
       transform="translate(678.9521,404.981)"><path
         d="M 0,0 H 7.008 V -180.324 H 71.944 V 0 H 79.2 V -187.2 H 0 Z"
         style="fill:none;stroke:#000000;stroke-width:1;stroke-linecap:butt;stroke-linejoin:miter;stroke-miterlimit:10;stroke-dasharray:none;stroke-opacity:1"
         id="path102" /></g><path
       d="m 658.354,217.781 h -79.2 v 187.2 h 79.2 z"
       style="fill:#ffffff;fill-opacity:1;fill-rule:nonzero;stroke:#000000;stroke-width:1;stroke-linecap:butt;stroke-linejoin:miter;stroke-miterlimit:10;stroke-dasharray:none;stroke-opacity:1"
       id="path104" /><g
       id="g106"
       transform="translate(579.1543,404.981)"><path
         d="M 0,0 H 7.008 V -180.324 H 71.943 V 0 H 79.2 V -187.2 H 0 Z"
         style="fill:#ffffff;fill-opacity:1;fill-rule:nonzero;stroke:none"
         id="path108" /></g><g
       id="g110"
       transform="translate(579.1543,404.981)"><path
         d="M 0,0 H 7.008 V -180.324 H 71.943 V 0 H 79.2 V -187.2 H 0 Z"
         style="fill:none;stroke:#000000;stroke-width:1;stroke-linecap:butt;stroke-linejoin:miter;stroke-miterlimit:10;stroke-dasharray:none;stroke-opacity:1"
         id="path112" /></g><path
       d="m 559.067,217.781 h -259.2 v 187.2 h 259.2 z"
       style="fill:#ffffff;fill-opacity:1;fill-rule:nonzero;stroke:#000000;stroke-width:1;stroke-linecap:butt;stroke-linejoin:miter;stroke-miterlimit:10;stroke-dasharray:none;stroke-opacity:1"
       id="path114" /><g
       id="g116"
       transform="translate(488.3184,404.981)"><path
         d="m 0,0 h -13.276 v 57.485 h -91.405 V 70.761 0 h -13.021 v 57.74 l 13.021,13.021 h 91.405 L 0,57.485 V 0 h -13.276 v 70.761"
         style="fill:#ffffff;fill-opacity:1;fill-rule:nonzero;stroke:#000000;stroke-width:1;stroke-linecap:butt;stroke-linejoin:miter;stroke-miterlimit:10;stroke-dasharray:none;stroke-opacity:1"
         id="path118" /></g><path
       d="m 551.867,404.981 h 7.2 v -187.2 h -7.2 z"
       style="fill:#ffffff;fill-opacity:1;fill-rule:nonzero;stroke:#000000;stroke-width:1;stroke-linecap:butt;stroke-linejoin:miter;stroke-miterlimit:10;stroke-dasharray:none;stroke-opacity:1"
       id="path120" /><path
       d="m 299.986,404.981 h 7.2 v -187.2 h -7.2 z"
       style="fill:#ffffff;fill-opacity:1;fill-rule:nonzero;stroke:#231f20;stroke-width:1;stroke-linecap:butt;stroke-linejoin:miter;stroke-miterlimit:10;stroke-dasharray:none;stroke-opacity:1"
       id="path122" /><path
       d="m 279.931,217.781 h -259.2 v 187.2 h 259.2 z"
       style="fill:#ffffff;fill-opacity:1;fill-rule:nonzero;stroke:#000000;stroke-width:1;stroke-linecap:butt;stroke-linejoin:miter;stroke-miterlimit:10;stroke-dasharray:none;stroke-opacity:1"
       id="path124" /><g
       id="g126"
       transform="translate(209.1821,404.981)"><path
         d="m 0,0 h -13.277 v 57.485 h -91.404 V 70.761 0 h -13.021 v 57.74 l 13.021,13.021 h 91.404 L 0,57.485 V 0 h -13.277 v 70.761"
         style="fill:#ffffff;fill-opacity:1;fill-rule:nonzero;stroke:#000000;stroke-width:1;stroke-linecap:butt;stroke-linejoin:miter;stroke-miterlimit:10;stroke-dasharray:none;stroke-opacity:1"
         id="path128" /></g><path
       d="m 272.731,404.981 h 7.2 v -187.2 h -7.2 z"
       style="fill:#ffffff;fill-opacity:1;fill-rule:nonzero;stroke:#000000;stroke-width:1;stroke-linecap:butt;stroke-linejoin:miter;stroke-miterlimit:10;stroke-dasharray:none;stroke-opacity:1"
       id="path130" /><path
       d="m 20.899,404.981 h 7.2 v -187.2 h -7.2 z"
       style="fill:#ffffff;fill-opacity:1;fill-rule:nonzero;stroke:#000000;stroke-width:1;stroke-linecap:butt;stroke-linejoin:miter;stroke-miterlimit:10;stroke-dasharray:none;stroke-opacity:1"
       id="path132" /><text
       transform="matrix(1,0,0,-1,20.731,557.1489)"
       style="font-variant:normal;font-weight:500;font-stretch:normal;font-size:21px;font-family:'NeueHaasGroteskDisp Pro Md';-inkscape-font-specification:NHaasGroteskDSPro-65Md;writing-mode:lr-tb;fill:#000000;fill-opacity:1;fill-rule:nonzero;stroke:none"
       id="text136"><tspan
         x="0 7.0560002 18.48 30.24 41.643002 46.431 57.393002 64.764 68.292 75.032997 83.264999 95.484901 103.8639 107.3919 118.6269 122.1549 130.3869 142.2939 150.6729 154.2009 165.4359 168.9639 181.1019 185.6799 197.60789 205.98689"
         y="0"
         sodipodi:role="line"
         id="tspan134">regular (18” x 13” x 5.5”)</tspan></text><text
       transform="matrix(1,0,0,-1,20.8989,414.7231)"
       style="font-variant:normal;font-stretch:normal;font-size:12px;font-family:'NeueHaasGroteskDisp Pro';-inkscape-font-specification:NHaasGroteskDSPro-55Rg;writing-mode:lr-tb;fill:#231f20;fill-opacity:1;fill-rule:nonzero;stroke:none"
       id="text142"><tspan
         x="0 3.5280001 7.4039998 14.016 20.232 558.10797 560.47198 566.74799 570.15601 658.05603 662.172 664.46399 670.97998 677.19598 279.09601 285.69601 291.81601 298.04401"
         y="0"
         sodipodi:role="line"
         id="tspan138">frontleftrightback</tspan><tspan
         x="278.97601 285.57599 292.0668 295.57199 299.19601 305.80801"
         y="234.888"
         sodipodi:role="line"
         id="tspan140">bottom</tspan></text></g></svg>
